<svg width="82" height="82" viewBox="0 0 82 82" fill="none" xmlns="http://www.w3.org/2000/svg">
<g clip-path="url(#clip0_743_8)">
<g filter="url(#filter0_d_743_8)">
<path d="M40.665 70.33C57.0485 70.33 70.33 57.0485 70.33 40.665C70.33 24.2815 57.0485 11 40.665 11C24.2815 11 11 24.2815 11 40.665C11 57.0485 24.2815 70.33 40.665 70.33Z" fill="url(#paint0_linear_743_8)"/>
</g>
<path d="M41 29C38.6266 29 36.3066 29.7038 34.3332 31.0224C32.3598 32.3409 30.8217 34.2151 29.9135 36.4078C29.0052 38.6005 28.7676 41.0133 29.2306 43.3411C29.6936 45.6689 30.8365 47.807 32.5147 49.4853C34.193 51.1635 36.3311 52.3064 38.6589 52.7694C40.9867 53.2324 43.3995 52.9948 45.5922 52.0865C47.7849 51.1783 49.6591 49.6402 50.9776 47.6668C52.2962 45.6935 53 43.3734 53 41C53 37.8174 51.7357 34.7652 49.4853 32.5147C47.2348 30.2643 44.1826 29 41 29ZM46.1349 44.5924C46.2391 44.693 46.3222 44.8134 46.3794 44.9465C46.4366 45.0796 46.4667 45.2227 46.4679 45.3676C46.4692 45.5124 46.4416 45.6561 46.3867 45.7901C46.3319 45.9242 46.2509 46.046 46.1484 46.1484C46.046 46.2509 45.9242 46.3319 45.7901 46.3867C45.6561 46.4416 45.5124 46.4692 45.3676 46.4679C45.2227 46.4666 45.0796 46.4366 44.9465 46.3794C44.8134 46.3222 44.693 46.2391 44.5924 46.1349L41 42.5425L37.4076 46.1349C37.307 46.2391 37.1866 46.3222 37.0535 46.3794C36.9204 46.4366 36.7773 46.4666 36.6324 46.4679C36.4876 46.4692 36.3439 46.4416 36.2099 46.3867C36.0758 46.3319 35.954 46.2509 35.8516 46.1484C35.7491 46.046 35.6681 45.9242 35.6133 45.7901C35.5584 45.6561 35.5308 45.5124 35.5321 45.3676C35.5334 45.2227 35.5634 45.0796 35.6206 44.9465C35.6778 44.8134 35.7609 44.693 35.8651 44.5924L39.4575 41L35.8651 37.4076C35.7609 37.307 35.6778 37.1866 35.6206 37.0535C35.5634 36.9204 35.5334 36.7773 35.5321 36.6324C35.5308 36.4876 35.5584 36.3439 35.6133 36.2099C35.6681 36.0758 35.7491 35.954 35.8516 35.8516C35.954 35.7491 36.0758 35.6681 36.2099 35.6133C36.3439 35.5584 36.4876 35.5308 36.6324 35.5321C36.7773 35.5333 36.9204 35.5634 37.0535 35.6206C37.1866 35.6778 37.307 35.7609 37.4076 35.8651L41 39.4575L44.5924 35.8651C44.693 35.7609 44.8134 35.6778 44.9465 35.6206C45.0796 35.5634 45.2227 35.5333 45.3676 35.5321C45.5124 35.5308 45.6561 35.5584 45.7901 35.6133C45.9242 35.6681 46.046 35.7491 46.1484 35.8516C46.2509 35.954 46.3319 36.0758 46.3867 36.2099C46.4416 36.3439 46.4692 36.4876 46.4679 36.6324C46.4667 36.7773 46.4366 36.9204 46.3794 37.0535C46.3222 37.1866 46.2391 37.307 46.1349 37.4076L42.5425 41L46.1349 44.5924Z" fill="white"/>
</g>
<defs>
<filter id="filter0_d_743_8" x="0" y="0" width="81.3301" height="81.3301" filterUnits="userSpaceOnUse" color-interpolation-filters="sRGB">
<feFlood flood-opacity="0" result="BackgroundImageFix"/>
<feColorMatrix in="SourceAlpha" type="matrix" values="0 0 0 0 0 0 0 0 0 0 0 0 0 0 0 0 0 0 127 0" result="hardAlpha"/>
<feOffset/>
<feGaussianBlur stdDeviation="5.5"/>
<feComposite in2="hardAlpha" operator="out"/>
<feColorMatrix type="matrix" values="0 0 0 0 0 0 0 0 0 0 0 0 0 0 0 0 0 0 0.25 0"/>
<feBlend mode="normal" in2="BackgroundImageFix" result="effect1_dropShadow_743_8"/>
<feBlend mode="normal" in="SourceGraphic" in2="effect1_dropShadow_743_8" result="shape"/>
</filter>
<linearGradient id="paint0_linear_743_8" x1="40.665" y1="11" x2="40.665" y2="70.33" gradientUnits="userSpaceOnUse">
<stop stop-color="#0B94E4"/>
<stop offset="1" stop-color="#343882"/>
</linearGradient>
<clipPath id="clip0_743_8">
<rect width="82" height="82" fill="white"/>
</clipPath>
</defs>
</svg>
