<svg width="13" height="13" viewBox="0 0 13 13" fill="none" xmlns="http://www.w3.org/2000/svg">
<path d="M11.375 10.1562V4.0625C11.375 3.95476 11.3322 3.85142 11.256 3.77524C11.1798 3.69905 11.0765 3.65625 10.9688 3.65625H9.34375C9.23601 3.65625 9.13267 3.69905 9.05649 3.77524C8.9803 3.85142 8.9375 3.95476 8.9375 4.0625V10.1562H8.125V2.4375C8.125 2.32976 8.0822 2.22642 8.00601 2.15024C7.92983 2.07405 7.82649 2.03125 7.71875 2.03125H6.09375C5.98601 2.03125 5.88267 2.07405 5.80649 2.15024C5.7303 2.22642 5.6875 2.32976 5.6875 2.4375V10.1562H4.875V6.09375C4.875 5.98601 4.8322 5.88267 4.75601 5.80649C4.67983 5.7303 4.57649 5.6875 4.46875 5.6875H2.84375C2.73601 5.6875 2.63267 5.7303 2.55649 5.80649C2.4803 5.88267 2.4375 5.98601 2.4375 6.09375V10.1562H1.625V2.03125H0.8125V10.5625C0.8125 10.6702 0.855301 10.7736 0.931488 10.8498C1.00767 10.9259 1.11101 10.9688 1.21875 10.9688H12.1875V10.1562H11.375ZM9.75 4.46875H10.5625V10.1562H9.75V4.46875ZM6.5 2.84375H7.3125V10.1562H6.5V2.84375ZM3.25 6.5H4.0625V10.1562H3.25V6.5Z" fill="white"/>
</svg>
