<svg width="13" height="13" viewBox="0 0 13 13" fill="none" xmlns="http://www.w3.org/2000/svg">
<path d="M6.47805 9.7891C6.42464 9.78896 6.37185 9.77758 6.32312 9.75571C6.27439 9.73384 6.23081 9.70196 6.1952 9.66215L2.63239 5.71111C2.58343 5.65638 2.55134 5.58866 2.53998 5.51611C2.52863 5.44355 2.53849 5.36927 2.56838 5.30219C2.59827 5.23511 2.64691 5.17811 2.70845 5.13804C2.76999 5.09797 2.8418 5.07654 2.91524 5.07635H4.34194V1.59961C4.34194 1.4986 4.38206 1.40173 4.45349 1.3303C4.52491 1.25888 4.62179 1.21875 4.7228 1.21875H8.23432C8.33533 1.21875 8.4322 1.25888 8.50363 1.3303C8.57505 1.40173 8.61518 1.4986 8.61518 1.59961V5.07533H10.0411C10.1146 5.07553 10.1864 5.09695 10.2479 5.13702C10.3094 5.17709 10.3581 5.2341 10.388 5.30117C10.4179 5.36825 10.4277 5.44254 10.4164 5.51509C10.405 5.58764 10.3729 5.65536 10.324 5.7101L6.7609 9.66316C6.7252 9.70279 6.68158 9.73448 6.63285 9.75617C6.58413 9.77787 6.53139 9.78909 6.47805 9.7891ZM3.77141 5.83705L6.47805 8.83949L9.18494 5.83705H8.23432C8.13331 5.83705 8.03644 5.79692 7.96501 5.7255C7.89359 5.65407 7.85346 5.5572 7.85346 5.45619V1.98047H5.10365V5.45619C5.10365 5.5572 5.06353 5.65407 4.9921 5.7255C4.92068 5.79692 4.82381 5.83705 4.7228 5.83705H3.77141Z" fill="white"/>
<path d="M9.92379 11.4257H3.03252C2.59298 11.4253 2.17157 11.2505 1.86074 10.9397C1.54991 10.6289 1.37505 10.2075 1.37451 9.76799V8.79883C1.37451 8.69782 1.41464 8.60094 1.48606 8.52952C1.55749 8.45809 1.65436 8.41797 1.75537 8.41797C1.85638 8.41797 1.95325 8.45809 2.02468 8.52952C2.0961 8.60094 2.13623 8.69782 2.13623 8.79883V9.76799C2.13657 10.0056 2.23111 10.2333 2.39913 10.4013C2.56716 10.5693 2.79494 10.6638 3.03252 10.664H9.92379C10.1613 10.6638 10.3891 10.5693 10.5571 10.4013C10.7251 10.2333 10.8196 10.0055 10.8198 9.76799V8.79883C10.8198 8.69782 10.86 8.60094 10.9314 8.52952C11.0028 8.45809 11.0997 8.41797 11.2007 8.41797C11.3017 8.41797 11.3986 8.45809 11.47 8.52952C11.5414 8.60094 11.5815 8.69782 11.5815 8.79883V9.76799C11.581 10.2075 11.4062 10.6288 11.0954 10.9396C10.7846 11.2504 10.3633 11.4252 9.92379 11.4257Z" fill="white"/>
</svg>
