<svg width="13" height="13" viewBox="0 0 13 13" fill="none" xmlns="http://www.w3.org/2000/svg">
<path d="M2.4375 7.71875H3.25L3.24594 1.21875H2.4375C1.76719 1.21875 1.21875 1.76719 1.21875 2.4375V6.5C1.21875 7.17031 1.76719 7.71875 2.4375 7.71875Z" fill="#FF0000"/>
<path d="M11.7812 7.03229C11.7812 6.91854 11.769 6.80479 11.7446 6.69511L10.8427 2.79511C10.6274 1.86479 9.81491 1.21886 8.86429 1.21886H4.05835L4.06241 7.65386C4.06241 7.94636 4.14366 8.23479 4.29397 8.49073L5.84179 11.0704C6.24804 11.7448 7.17022 12.0251 7.91772 11.5335C8.31179 11.2735 8.53116 10.8307 8.53116 10.3595C8.53116 10.1726 8.49866 9.99386 8.4296 9.81917L7.91366 8.53136H10.2821C11.1068 8.53136 11.7812 7.85698 11.7812 7.03229Z" fill="#FF0000"/>
</svg>
