<svg width="85" height="85" viewBox="0 0 85 85" fill="none" xmlns="http://www.w3.org/2000/svg">
<path d="M42.5 10.625C42.5 10.625 20.5912 29.5375 8.34769 39.78C7.62873 40.4317 7.08331 41.3808 7.08331 42.5C7.08331 44.4585 8.66644 46.0417 10.625 46.0417H17.7083V70.8333C17.7083 72.7919 19.2914 74.375 21.25 74.375H31.875C33.8335 74.375 35.4166 72.7883 35.4166 70.8333V56.6667H49.5833V70.8333C49.5833 72.7883 51.1664 74.375 53.125 74.375H63.75C65.7085 74.375 67.2916 72.7919 67.2916 70.8333V46.0417H74.375C76.3335 46.0417 77.9166 44.4585 77.9166 42.5C77.9166 41.3808 77.3712 40.4317 76.5602 39.78C64.4016 29.5375 42.5 10.625 42.5 10.625Z" fill="white"/>
</svg>
