<svg width="16" height="16" viewBox="0 0 16 16" fill="none" xmlns="http://www.w3.org/2000/svg">
    <path fill-rule="evenodd" clip-rule="evenodd"
        d="M8 2C8.47339 2 8.85714 2.38376 8.85714 2.85714V7.14286H13.1429C13.6162 7.14286 14 7.52661 14 8C14 8.47339 13.6162 8.85714 13.1429 8.85714L8.85714 8.85715V13.1429C8.85714 13.6162 8.47339 14 8 14C7.52661 14 7.14286 13.6162 7.14286 13.1429V8.85715H2.85714C2.38376 8.85715 2 8.4734 2 8.00001C2 7.52662 2.38376 7.14287 2.85714 7.14287L7.14286 7.14286V2.85714C7.14286 2.38376 7.52661 2 8 2Z"
        fill="white" />
</svg>
    