<svg width="15" height="15" viewBox="0 0 15 15" fill="none" xmlns="http://www.w3.org/2000/svg">
<g clip-path="url(#clip0_186_48336)">
<path d="M14.148 8.63409L12.375 8.92389C12.2712 9.27969 12.1293 9.62169 11.9517 9.94539L12.9867 11.4205C13.0704 11.5396 13.056 11.7019 12.9531 11.8051L11.7864 12.9712C11.6823 13.075 11.5185 13.0885 11.3991 13.0024L9.94618 11.9581C9.61948 12.1387 9.27449 12.2821 8.91659 12.3862L8.60729 14.152C8.58209 14.2954 8.45759 14.4004 8.31179 14.4004H6.66179C6.51479 14.4004 6.38939 14.2939 6.36569 14.1487L6.07889 12.3925C5.71889 12.289 5.37329 12.1471 5.04779 11.9689L3.59879 13.0039C3.47909 13.0894 3.31619 13.0756 3.21209 12.9721L2.04599 11.806C1.94309 11.7031 1.92869 11.5411 2.01239 11.422L3.03209 9.96309C2.85059 9.63459 2.70599 9.28689 2.60069 8.92509L0.851386 8.63379C0.706786 8.60979 0.600586 8.48439 0.600586 8.33799V6.68799C0.600586 6.54249 0.704986 6.41799 0.848086 6.39249L2.59739 6.08229C2.70209 5.72139 2.84669 5.37369 3.02879 5.04429L1.99649 3.60039C1.91129 3.48129 1.92479 3.31779 2.02829 3.21369L3.19469 2.04639C3.29759 1.94349 3.45989 1.92909 3.57899 2.01279L5.03999 3.03609C5.36789 2.85579 5.71439 2.71269 6.07349 2.60889L6.36629 0.85059C6.38999 0.70629 6.51509 0.60039 6.66179 0.60039H8.31179C8.45729 0.60039 8.58179 0.70479 8.60699 0.84789L8.92049 2.61489C9.28019 2.72079 9.62489 2.86479 9.94949 3.04539L11.421 2.01309C11.5404 1.92879 11.7024 1.94349 11.8056 2.04639L12.972 3.21369C13.0758 3.31779 13.0893 3.48189 13.0032 3.60129L11.9538 5.05839C12.1317 5.38239 12.273 5.72499 12.3759 6.08079L14.1513 6.39249C14.295 6.41769 14.3994 6.54249 14.3994 6.68799V8.33799C14.3997 8.48499 14.2932 8.61039 14.148 8.63409ZM7.49999 5.40039C6.34019 5.40039 5.39999 6.34059 5.39999 7.50039C5.39999 8.66019 6.34019 9.60039 7.49999 9.60039C8.65979 9.60039 9.59999 8.66019 9.59999 7.50039C9.59999 6.34059 8.65979 5.40039 7.49999 5.40039Z" fill="#94A3B8"/>
</g>
<defs>
<clipPath id="clip0_186_48336">
<rect width="15" height="15" fill="white" transform="matrix(1 0 0 -1 0 15)"/>
</clipPath>
</defs>
</svg>
