<svg width="13" height="13" viewBox="0 0 13 13" fill="none" xmlns="http://www.w3.org/2000/svg">
<path fill-rule="evenodd" clip-rule="evenodd" d="M8.53125 10.5625V11.376C8.53125 11.8256 8.16795 12.1875 7.7198 12.1875H1.62395C1.17444 12.1875 0.8125 11.8224 0.8125 11.372V2.03423C0.8125 1.5837 1.17782 1.21875 1.62847 1.21875H5.6875V3.65702C5.6875 4.10853 6.05234 4.46875 6.5024 4.46875H8.53125V5.28125H4.47153C3.7969 5.28125 3.25 5.82655 3.25 6.49951V9.34424C3.25 10.0171 3.79275 10.5625 4.47153 10.5625H8.53125ZM6.09375 1.21875V3.65506C6.09375 3.88008 6.27696 4.0625 6.49625 4.0625H8.53125L6.09375 1.21875ZM4.46654 5.6875C4.01903 5.6875 3.65625 6.0532 3.65625 6.49676V9.34699C3.65625 9.79393 4.02283 10.1562 4.46654 10.1562H11.3772C11.8247 10.1562 12.1875 9.79055 12.1875 9.34699V6.49676C12.1875 6.04982 11.8209 5.6875 11.3772 5.6875H4.46654ZM8.39948 9.29612C8.31316 9.32698 8.22007 9.34375 8.12302 9.34375H7.72073C7.2694 9.34375 6.90625 8.97891 6.90625 8.52885V7.3149C6.90625 6.86016 7.27091 6.5 7.72073 6.5H8.12302C8.57435 6.5 8.9375 6.86484 8.9375 7.3149V8.52885C8.9375 8.73412 8.8632 8.92011 8.7403 9.06241L9.04628 9.36839L8.75902 9.65566L8.39948 9.29612ZM8.04086 8.9375H7.71833C7.49233 8.9375 7.3125 8.75565 7.3125 8.53133V7.31242C7.3125 7.08651 7.49419 6.90625 7.71833 6.90625H8.12542C8.35142 6.90625 8.53125 7.0881 8.53125 7.31242V8.53133C8.53125 8.62251 8.50165 8.70626 8.4516 8.77372L7.89723 8.21934L7.60997 8.50661L8.04086 8.9375ZM5.28323 6.5C4.83341 6.5 4.46875 6.86064 4.46875 7.3125C4.46875 7.76123 4.82939 8.125 5.28125 8.125H5.68369C5.91016 8.125 6.09375 8.30532 6.09375 8.53125C6.09375 8.75562 5.91392 8.9375 5.68792 8.9375H5.28083C5.05669 8.9375 4.875 8.75213 4.875 8.53307V8.52847H4.46875V8.53081C4.46875 8.97978 4.8319 9.34375 5.28323 9.34375H5.68552C6.13534 9.34375 6.5 8.98311 6.5 8.53125C6.5 8.08252 6.13936 7.71875 5.6875 7.71875H5.28506C5.05859 7.71875 4.875 7.53843 4.875 7.3125C4.875 7.08813 5.05483 6.90625 5.28083 6.90625H5.68792C5.91206 6.90625 6.09375 7.09036 6.09375 7.3125H6.5C6.5 6.86377 6.13685 6.5 5.68552 6.5H5.28323ZM11.375 8.9375V9.34375H9.34375V6.5H9.75V8.9375H11.375Z" fill="white"/>
</svg>
