<svg width="13" height="13" viewBox="0 0 13 13" fill="none" xmlns="http://www.w3.org/2000/svg">
<path d="M10.1151 3.46575C10.0895 3.40335 10.0583 3.34379 10.0158 3.29273L7.63884 0.691715C7.58495 0.63215 7.51971 0.589603 7.4488 0.552729C7.36654 0.510183 7.27578 0.493164 7.17934 0.493164H2.64387C2.29215 0.493164 2 0.793827 2 1.17107V10.6788C2 11.0589 2.29215 11.3851 2.64387 11.3851H9.53926C9.89097 11.3851 10.1689 11.0589 10.1689 10.6788V3.75507C10.1689 3.65296 10.1548 3.55368 10.1151 3.46575ZM3.36149 3.73238C3.36149 3.68983 3.41255 3.67281 3.45793 3.67281H5.46613C5.51151 3.67281 5.54555 3.68983 5.54555 3.73238V4.03871C5.54555 4.07842 5.51435 4.12664 5.46613 4.12664H3.45793C3.41255 4.12664 3.36149 4.07842 3.36149 4.03871V3.73238ZM3.36149 7.36302C3.36149 7.32047 3.41255 7.30345 3.45793 7.30345H6.92406C6.96944 7.30345 6.99213 7.32047 6.99213 7.36302V7.66936C6.99213 7.70907 6.97228 7.75729 6.92406 7.75729H3.45793C3.41255 7.75729 3.36149 7.70907 3.36149 7.66936V7.36302ZM7.89979 9.48468C7.89979 9.52439 7.87994 9.57261 7.83172 9.57261H3.45793C3.41255 9.57261 3.36149 9.52439 3.36149 9.48468V9.17834C3.36149 9.13579 3.41255 9.11878 3.45793 9.11878H7.83172C7.8771 9.11878 7.89979 9.13579 7.89979 9.17834V9.48468ZM8.80745 5.85403C8.80745 5.89374 8.7876 5.94196 8.73938 5.94196H3.45793C3.41255 5.94196 3.36149 5.89374 3.36149 5.85403V5.5477C3.36149 5.50515 3.41255 5.48813 3.45793 5.48813H8.73938C8.78476 5.48813 8.80745 5.50515 8.80745 5.5477V5.85403ZM7.47716 3.70118C7.31832 3.70118 7.16232 3.55368 7.16232 3.38066V1.50861L9.18186 3.70118H7.47716Z" fill="white"/>
</svg>
