<svg width="16" height="16" viewBox="0 0 16 16" fill="none" xmlns="http://www.w3.org/2000/svg">
    <path
        d="M2.83999 6.7651C2.65662 8.16882 2.54736 9.58122 2.51266 10.9964C4.43184 11.7981 6.26943 12.7827 7.99999 13.9364C9.73076 12.7826 11.5686 11.7981 13.488 10.9964C13.4533 9.58122 13.344 8.16882 13.1607 6.7651M13.1607 6.7651C13.744 6.5691 14.3353 6.38777 14.9327 6.22244C12.757 4.69726 10.4346 3.39302 7.99999 2.3291C5.56532 3.39325 3.24292 4.69771 1.06732 6.2231C1.66284 6.3875 2.25373 6.56823 2.83932 6.7651C4.61842 7.36318 6.34462 8.10843 7.99999 8.9931C9.65515 8.10847 11.3818 7.36323 13.1607 6.7651ZM4.49999 10.0004C4.6326 10.0004 4.75977 9.94776 4.85354 9.85399C4.94731 9.76022 4.99999 9.63304 4.99999 9.50044C4.99999 9.36783 4.94731 9.24065 4.85354 9.14688C4.75977 9.05311 4.6326 9.00044 4.49999 9.00044C4.36738 9.00044 4.2402 9.05311 4.14644 9.14688C4.05267 9.24065 3.99999 9.36783 3.99999 9.50044C3.99999 9.63304 4.05267 9.76022 4.14644 9.85399C4.2402 9.94776 4.36738 10.0004 4.49999 10.0004ZM4.49999 10.0004V7.55043C5.63114 6.84733 6.79952 6.20594 7.99999 5.6291M3.32866 13.3291C3.70064 12.958 3.99561 12.5171 4.19663 12.0317C4.39765 11.5462 4.50074 11.0258 4.49999 10.5004V9.50044"
        stroke="#94A3B8" stroke-width="1.5" stroke-linecap="round" stroke-linejoin="round" />
</svg>
    