<svg width="13" height="13" viewBox="0 0 13 13" fill="none" xmlns="http://www.w3.org/2000/svg">
<path fill-rule="evenodd" clip-rule="evenodd" d="M4.14555 11.4432C3.95053 11.7291 3.62217 11.9168 3.24998 11.9168H2.16665C1.56834 11.9168 1.08331 11.4318 1.08331 10.8335V5.95849C1.08331 5.36018 1.56834 4.87516 2.16665 4.87516H3.24998C3.35732 4.87516 3.46102 4.89077 3.55892 4.91985C4.14074 4.07245 6.09669 1.93634 6.61929 1.28553L6.78191 1.08301H7.04165C7.37466 1.08296 7.66038 1.10794 7.98863 1.20352C8.71641 1.41544 9.20831 1.91067 9.20831 2.70801C9.20831 2.98973 9.15843 3.2901 9.06652 3.62349C9.00571 3.84408 8.93055 4.06681 8.82756 4.34325C8.79619 4.42746 8.67054 4.7569 8.64216 4.83366C8.63696 4.84771 8.63194 4.86138 8.62709 4.87467H10.2916C11.3043 4.87467 11.9166 5.58833 11.9166 6.49967C11.9166 9.71911 11.2423 11.9163 9.74998 11.9163L5.97695 11.916C5.60127 11.9229 5.14876 11.8728 4.6925 11.7095C4.49322 11.6382 4.30988 11.5495 4.14555 11.4432ZM4.33331 9.74967C4.33331 10.2384 4.57813 10.518 5.05745 10.6895C5.36823 10.8007 5.70122 10.8376 5.93831 10.8333C5.94225 10.8333 5.94225 10.8333 5.95831 10.833H9.74998C10.2998 10.833 10.8333 9.09466 10.8333 6.49967C10.8333 6.15295 10.6661 5.95801 10.2916 5.95801H8.12498C7.47793 5.95801 7.34256 5.4577 7.4775 4.91601C7.50924 4.78858 7.55564 4.64835 7.62608 4.45789C7.65687 4.37463 7.78315 4.04354 7.8124 3.96503C7.90528 3.71571 7.97123 3.52028 8.02214 3.33559C8.09028 3.08843 8.12498 2.87949 8.12498 2.70801C8.12498 2.46373 7.99616 2.33404 7.68576 2.24366C7.55535 2.20568 7.42698 2.18475 7.29079 2.17454C6.45354 3.17539 4.55358 5.25462 4.41007 5.58966C4.35738 5.71269 4.33331 5.8279 4.33331 5.95801V9.74967ZM2.16665 5.95849V10.8335H3.24998V5.95849H2.16665Z" fill="white"/>
</svg>
