<svg width="13" height="13" viewBox="0 0 13 13" fill="none" xmlns="http://www.w3.org/2000/svg">
<path d="M2.4375 5.28125H3.25L3.24594 11.7812H2.4375C1.76719 11.7812 1.21875 11.2328 1.21875 10.5625V6.5C1.21875 5.82969 1.76719 5.28125 2.4375 5.28125Z" fill="#16A34A"/>
<path d="M11.7812 5.96771C11.7812 6.08146 11.769 6.19521 11.7446 6.30489L10.8427 10.2049C10.6274 11.1352 9.81491 11.7811 8.86429 11.7811H4.05835L4.06241 5.34614C4.06241 5.05364 4.14366 4.76521 4.29397 4.50927L5.84179 1.92958C6.24804 1.25521 7.17022 0.974893 7.91772 1.46646C8.31179 1.72646 8.53116 2.16927 8.53116 2.64052C8.53116 2.82739 8.49866 3.00614 8.4296 3.18083L7.91366 4.46864H10.2821C11.1068 4.46864 11.7812 5.14302 11.7812 5.96771Z" fill="#16A34A"/>
</svg>
