<svg width="82" height="82" viewBox="0 0 82 82" fill="none" xmlns="http://www.w3.org/2000/svg">
<g clip-path="url(#clip0_7089_6)">
<mask id="mask0_7089_6" style="mask-type:luminance" maskUnits="userSpaceOnUse" x="0" y="0" width="82" height="82">
<path d="M82 0H0V82H82V0Z" fill="white"/>
</mask>
<g mask="url(#mask0_7089_6)">
<mask id="mask1_7089_6" style="mask-type:luminance" maskUnits="userSpaceOnUse" x="0" y="0" width="82" height="82">
<path d="M82 0H0V82H82V0Z" fill="white"/>
</mask>
<g mask="url(#mask1_7089_6)">
<g filter="url(#filter0_d_7089_6)">
<path d="M40.665 70.33C57.0485 70.33 70.33 57.0485 70.33 40.665C70.33 24.2815 57.0485 11 40.665 11C24.2815 11 11 24.2815 11 40.665C11 57.0485 24.2815 70.33 40.665 70.33Z" fill="url(#paint0_linear_7089_6)"/>
</g>
</g>
</g>
<path d="M49.5 52H32.5C31.837 52 31.2011 51.7366 30.7322 51.2678C30.2634 50.7989 30 50.163 30 49.5V32.5C30 31.837 30.2634 31.2011 30.7322 30.7322C31.2011 30.2634 31.837 30 32.5 30H49.5C50.163 30 50.7989 30.2634 51.2678 30.7322C51.7366 31.2011 52 31.837 52 32.5V49.5C52 50.163 51.7366 50.7989 51.2678 51.2678C50.7989 51.7366 50.163 52 49.5 52Z" fill="white"/>
</g>
<defs>
<filter id="filter0_d_7089_6" x="0" y="0" width="81.33" height="81.33" filterUnits="userSpaceOnUse" color-interpolation-filters="sRGB">
<feFlood flood-opacity="0" result="BackgroundImageFix"/>
<feColorMatrix in="SourceAlpha" type="matrix" values="0 0 0 0 0 0 0 0 0 0 0 0 0 0 0 0 0 0 127 0" result="hardAlpha"/>
<feOffset/>
<feGaussianBlur stdDeviation="5.5"/>
<feComposite in2="hardAlpha" operator="out"/>
<feColorMatrix type="matrix" values="0 0 0 0 0 0 0 0 0 0 0 0 0 0 0 0 0 0 0.25 0"/>
<feBlend mode="normal" in2="BackgroundImageFix" result="effect1_dropShadow_7089_6"/>
<feBlend mode="normal" in="SourceGraphic" in2="effect1_dropShadow_7089_6" result="shape"/>
</filter>
<linearGradient id="paint0_linear_7089_6" x1="40.665" y1="11" x2="40.665" y2="70.33" gradientUnits="userSpaceOnUse">
<stop stop-color="#818182"/>
<stop offset="1"/>
</linearGradient>
<clipPath id="clip0_7089_6">
<rect width="82" height="82" fill="white"/>
</clipPath>
</defs>
</svg>
