<svg width="13" height="13" viewBox="0 0 13 13" fill="none" xmlns="http://www.w3.org/2000/svg">
<path fill-rule="evenodd" clip-rule="evenodd" d="M3.5592 8.08059C3.46121 8.10972 3.35742 8.12536 3.24998 8.12536H2.16665C1.56834 8.12536 1.08331 7.64034 1.08331 7.04203V2.16703C1.08331 1.56872 1.56834 1.0837 2.16665 1.0837H3.24998C3.62203 1.0837 3.95027 1.27124 4.14532 1.55695C4.30971 1.4506 4.49313 1.36185 4.6925 1.29051C5.14876 1.12727 5.60127 1.07715 5.95773 1.08354C5.96648 1.08373 7.23056 1.08378 9.74998 1.0837C11.2423 1.0837 11.9166 3.28093 11.9166 6.50036C11.9166 7.41171 11.3043 8.12536 10.2916 8.12536H8.62709C8.63194 8.13866 8.63696 8.15233 8.64216 8.16638C8.67054 8.24313 8.79619 8.57258 8.82756 8.65679C8.93055 8.93323 9.00571 9.15596 9.06652 9.37654C9.15843 9.70994 9.20831 10.0103 9.20831 10.292C9.20831 11.0894 8.71641 11.5846 7.98863 11.7965C7.66038 11.8921 7.37466 11.9171 7.04582 11.917H6.78191L6.61929 11.7145C6.09678 11.0638 4.14136 8.92826 3.5592 8.08059ZM4.33331 7.04203C4.33331 7.17214 4.35738 7.28735 4.41007 7.41037C4.55358 7.74542 6.45354 9.82465 7.29079 10.8255C7.42698 10.8153 7.55535 10.7944 7.68576 10.7564C7.99616 10.666 8.12498 10.5363 8.12498 10.292C8.12498 10.1205 8.09028 9.91161 8.02214 9.66445C7.97123 9.47976 7.90528 9.28433 7.8124 9.035C7.78315 8.9565 7.65687 8.62541 7.62608 8.54215C7.55564 8.35169 7.50924 8.21145 7.4775 8.08403C7.34256 7.54234 7.47793 7.04203 8.12498 7.04203H10.2916C10.6661 7.04203 10.8333 6.84709 10.8333 6.50036C10.8333 3.90538 10.2998 2.16703 9.74998 2.16703C8.62993 2.16703 8.62993 2.16703 5.93968 2.16671C5.70122 2.16245 5.36823 2.19933 5.05745 2.31053C4.57813 2.48202 4.33331 2.76165 4.33331 3.25036V7.04203ZM2.16665 2.16703V7.04203H3.24998V2.16703H2.16665Z" fill="white"/>
</svg>
