<svg width="15" height="15" viewBox="0 0 15 15" fill="none" xmlns="http://www.w3.org/2000/svg">
<path d="M6.42653 2.0005C3.38919 2.04115 0.960084 4.53659 1.0005 7.57401C1.04115 10.6101 3.53637 13.0399 6.57359 12.9995C9.61033 12.9586 12.0399 10.4632 11.9995 7.42599C11.9589 4.38964 9.46351 1.95997 6.42653 2.0005ZM6.41027 10.8478L6.3799 10.8473C5.91215 10.8335 5.58239 10.4889 5.59566 10.0281C5.60869 9.57517 5.94647 9.24636 6.39879 9.24636L6.42593 9.24684C6.9067 9.26107 7.23276 9.60219 7.21925 10.0763C7.20586 10.5305 6.87335 10.8478 6.41027 10.8478ZM8.37773 6.94295C8.26772 7.09922 8.02584 7.29327 7.72107 7.53073L7.38545 7.76245C7.2012 7.90568 7.09 8.04043 7.04827 8.17303C7.01539 8.27741 6.99925 8.30503 6.99638 8.51738L6.9959 8.5713H5.71439L5.7181 8.46286C5.73376 8.01712 5.74476 7.75491 5.92949 7.53826C6.21932 7.19798 6.85864 6.78632 6.88578 6.76886C6.97737 6.69987 7.05461 6.62132 7.11212 6.53739C7.24663 6.35194 7.30617 6.20595 7.30617 6.06247C7.30617 5.8634 7.24711 5.67927 7.13029 5.51535C7.01802 5.35716 6.80471 5.27705 6.49623 5.27705C6.19026 5.27705 5.98078 5.37414 5.85548 5.57333C5.72659 5.77815 5.66142 5.99325 5.66142 6.21301V6.26765H4.3401L4.34249 6.21061C4.37657 5.40128 4.66544 4.81852 5.20074 4.47848C5.53707 4.26195 5.95556 4.15219 6.44386 4.15219C7.08306 4.15219 7.62267 4.3075 8.04748 4.61383C8.47792 4.92422 8.69625 5.38909 8.69625 5.99552C8.69625 6.33472 8.58912 6.65336 8.37773 6.94295Z" fill="white"/>
</svg>
