<svg width="16" height="15" viewBox="0 0 16 15" fill="none" xmlns="http://www.w3.org/2000/svg">
<path d="M7.5 1C3.90994 1 1 3.90994 1 7.5C1 11.0901 3.90994 14 7.5 14C11.0901 14 14 11.0901 14 7.5C14 3.90994 11.0901 1 7.5 1ZM7.5 12.1429C4.9351 12.1429 2.85714 10.0645 2.85714 7.5C2.85714 4.9351 4.9351 2.85714 7.5 2.85714C10.0645 2.85714 12.1429 4.9351 12.1429 7.5C12.1429 10.0645 10.0645 12.1429 7.5 12.1429ZM6.57143 11.2143H8.42857V9.35714H6.57143V11.2143ZM6.57143 8.42857H8.42857V3.78571H6.57143V8.42857Z" fill="white"/>
</svg>
