<svg width="13" height="13" viewBox="0 0 13 13" fill="none" xmlns="http://www.w3.org/2000/svg">
<path d="M1.08331 4.33366C1.08331 4.03451 1.32583 3.79199 1.62498 3.79199H11.375C11.6741 3.79199 11.9166 4.03451 11.9166 4.33366C11.9166 4.63281 11.6741 4.87533 11.375 4.87533H1.62498C1.32583 4.87533 1.08331 4.63281 1.08331 4.33366Z" fill="white"/>
<path d="M1.08331 6.49967C1.08331 6.20051 1.32583 5.95801 1.62498 5.95801H11.375C11.6741 5.95801 11.9166 6.20051 11.9166 6.49967C11.9166 6.79884 11.6741 7.04134 11.375 7.04134H1.62498C1.32583 7.04134 1.08331 6.79884 1.08331 6.49967Z" fill="white"/>
<path d="M1.62498 8.125C1.32583 8.125 1.08331 8.3675 1.08331 8.66667C1.08331 8.96583 1.32583 9.20833 1.62498 9.20833H8.12498C8.42414 9.20833 8.66665 8.96583 8.66665 8.66667C8.66665 8.3675 8.42414 8.125 8.12498 8.125H1.62498Z" fill="white"/>
</svg>
