<svg width="13" height="13" viewBox="0 0 13 13" fill="none" xmlns="http://www.w3.org/2000/svg">
<g clip-path="url(#clip0_222_17)">
<path d="M10.1292 7.58371H6.77084C6.01251 7.58371 5.36251 6.93371 5.36251 6.17537V2.87121C5.41667 2.43787 5.09168 2.11287 4.65834 2.16704C1.67918 2.60037 -0.541659 5.41704 0.108341 8.66704C0.487508 10.7795 2.22084 12.4587 4.33334 12.892C7.52918 13.542 10.4 11.3212 10.8333 8.34204C10.8875 7.90871 10.5625 7.58371 10.1292 7.58371Z" fill="white"/>
<path d="M13 5.74212C12.8375 4.27962 12.1875 2.92546 11.1042 1.84212C10.075 0.812956 8.66667 0.108789 7.20417 -0.0537109C6.825 -0.0537109 6.5 0.271289 6.5 0.650456V5.95879C6.5 6.28379 6.77083 6.50046 7.04167 6.50046H12.35C12.7292 6.50046 13.0542 6.17546 13 5.74212Z" fill="white"/>
</g>
<defs>
<clipPath id="clip0_222_17">
<rect width="13" height="13" fill="white"/>
</clipPath>
</defs>
</svg>
