<svg width="13" height="13" viewBox="0 0 13 13" fill="none" xmlns="http://www.w3.org/2000/svg">
<path d="M6.5 3.45312C4.81995 3.45312 3.45312 4.81995 3.45312 6.5C3.45312 8.18005 4.81995 9.54688 6.5 9.54688C8.18005 9.54688 9.54688 8.18005 9.54688 6.5C9.54688 4.81995 8.18005 3.45312 6.5 3.45312ZM6.5 9.14062C5.75352 9.14062 5.07975 8.82781 4.59895 8.32812H8.40105C7.92025 8.82781 7.24648 9.14062 6.5 9.14062ZM6.19592 6.21177C6.00478 6.10045 5.89062 5.90444 5.89062 5.6875V5.28125C5.89062 5.11103 5.96273 4.94711 6.08847 4.83194C6.21563 4.71514 6.38056 4.65908 6.55525 4.67431C6.86583 4.70133 7.10938 4.98631 7.10938 5.3235V5.6875C7.10938 5.90444 6.99522 6.10045 6.80408 6.21177L6.70312 6.27047V6.85628L7.68625 7.1372C7.94463 7.21094 8.125 7.45022 8.125 7.71875V7.92188H4.875V7.71875C4.875 7.45022 5.05537 7.21094 5.31375 7.1372L6.29688 6.85628V6.27047L6.19592 6.21177ZM8.53125 8.18492V7.71875C8.53125 7.26984 8.22981 6.86989 7.79797 6.74659L7.10938 6.54997V6.49594C7.36247 6.3052 7.51562 6.00519 7.51562 5.6877V5.3237C7.51562 4.7777 7.10917 4.31498 6.59019 4.26989C6.30561 4.2445 6.02286 4.34098 5.81384 4.53273C5.60442 4.72448 5.48438 4.99748 5.48438 5.28125V5.6875C5.48438 6.00498 5.63753 6.3052 5.89062 6.49573V6.54977L5.20203 6.74659C4.77019 6.86989 4.46875 7.26984 4.46875 7.71875V8.18492C4.0885 7.72728 3.85938 7.14005 3.85938 6.5C3.85938 5.044 5.044 3.85938 6.5 3.85938C7.956 3.85938 9.14062 5.044 9.14062 6.5C9.14062 7.14005 8.9115 7.72728 8.53125 8.18492Z" fill="#94A3B8"/>
<path d="M10.9688 1.42188H9.10325C9.01916 1.18605 8.79572 1.01562 8.53125 1.01562H7.84408C7.58083 0.513703 7.06855 0.203125 6.5 0.203125C5.93145 0.203125 5.41917 0.5135 5.15592 1.01562H4.46875C4.20428 1.01562 3.98084 1.18605 3.89675 1.42188H2.03125C1.69528 1.42188 1.42188 1.69528 1.42188 2.03125V12.1875C1.42188 12.5235 1.69528 12.7969 2.03125 12.7969H10.9688C11.3047 12.7969 11.5781 12.5235 11.5781 12.1875V2.03125C11.5781 1.69528 11.3047 1.42188 10.9688 1.42188ZM10.3594 9.95312H8.73438V11.5781H2.64062V2.64062H3.85938V3.04688H9.14062V2.64062H10.3594V9.95312ZM10.0722 10.3594L9.14062 11.2909V10.3594H10.0722ZM4.26562 1.625C4.26562 1.51308 4.35683 1.42188 4.46875 1.42188H5.40678L5.5057 1.22383C5.69542 0.844797 6.07628 0.609375 6.5 0.609375C6.92372 0.609375 7.30458 0.844797 7.4943 1.22363L7.59322 1.42188H8.53125C8.64317 1.42188 8.73438 1.51308 8.73438 1.625V2.64062H4.26562V1.625ZM11.1719 12.1875C11.1719 12.2994 11.0807 12.3906 10.9688 12.3906H2.03125C1.91933 12.3906 1.82812 12.2994 1.82812 12.1875V2.03125C1.82812 1.91933 1.91933 1.82812 2.03125 1.82812H3.85938V2.23438H2.23438V11.9844H9.02159L10.7656 10.2403V2.23438H9.14062V1.82812H10.9688C11.0807 1.82812 11.1719 1.91933 11.1719 2.03125V12.1875Z" fill="#94A3B8"/>
<path d="M8.32812 9.95312H7.92188V10.3594H8.32812V9.95312Z" fill="#94A3B8"/>
<path d="M7.51562 9.95312H3.04688V10.3594H7.51562V9.95312Z" fill="#94A3B8"/>
<path d="M7.51562 10.7656H3.04688V11.1719H7.51562V10.7656Z" fill="#94A3B8"/>
<path d="M8.32812 10.7656H7.92188V11.1719H8.32812V10.7656Z" fill="#94A3B8"/>
<path d="M6.5 1.01562C6.16403 1.01562 5.89062 1.28903 5.89062 1.625C5.89062 1.96097 6.16403 2.23438 6.5 2.23438C6.83597 2.23438 7.10938 1.96097 7.10938 1.625C7.10938 1.28903 6.83597 1.01562 6.5 1.01562ZM6.5 1.82812C6.38808 1.82812 6.29688 1.73692 6.29688 1.625C6.29688 1.51308 6.38808 1.42188 6.5 1.42188C6.61192 1.42188 6.70312 1.51308 6.70312 1.625C6.70312 1.73692 6.61192 1.82812 6.5 1.82812Z" fill="#94A3B8"/>
<path d="M5.28125 1.82812H4.875V2.23438H5.28125V1.82812Z" fill="#94A3B8"/>
<path d="M8.125 1.82812H7.71875V2.23438H8.125V1.82812Z" fill="#94A3B8"/>
</svg>
