<svg width="82" height="83" viewBox="0 0 82 83" fill="none" xmlns="http://www.w3.org/2000/svg">
<g clip-path="url(#clip0_3865_40)">
<mask id="mask0_3865_40" style="mask-type:luminance" maskUnits="userSpaceOnUse" x="0" y="0" width="82" height="83">
<path d="M82 0.5H0V82.5H82V0.5Z" fill="white"/>
</mask>
<g mask="url(#mask0_3865_40)">
<mask id="mask1_3865_40" style="mask-type:luminance" maskUnits="userSpaceOnUse" x="0" y="0" width="82" height="83">
<path d="M82 0.5H0V82.5H82V0.5Z" fill="white"/>
</mask>
<g mask="url(#mask1_3865_40)">
<g filter="url(#filter0_d_3865_40)">
<path d="M40.665 70.83C57.0485 70.83 70.33 57.5485 70.33 41.165C70.33 24.7815 57.0485 11.5 40.665 11.5C24.2815 11.5 11 24.7815 11 41.165C11 57.5485 24.2815 70.83 40.665 70.83Z" fill="url(#paint0_linear_3865_40)"/>
</g>
<path d="M41 29.5C38.6266 29.5 36.3066 30.2038 34.3332 31.5224C32.3598 32.8409 30.8217 34.7151 29.9135 36.9078C29.0052 39.1005 28.7676 41.5133 29.2306 43.8411C29.6936 46.1689 30.8365 48.307 32.5147 49.9853C34.193 51.6635 36.3311 52.8064 38.6589 53.2694C40.9867 53.7324 43.3995 53.4948 45.5922 52.5865C47.7849 51.6783 49.6591 50.1402 50.9776 48.1668C52.2962 46.1935 53 43.8734 53 41.5C53 38.3174 51.7357 35.2652 49.4853 33.0147C47.2348 30.7643 44.1826 29.5 41 29.5ZM46.1349 45.0924C46.2391 45.193 46.3222 45.3134 46.3794 45.4465C46.4366 45.5796 46.4667 45.7227 46.4679 45.8676C46.4692 46.0124 46.4416 46.1561 46.3867 46.2901C46.3319 46.4242 46.2509 46.546 46.1484 46.6484C46.046 46.7509 45.9242 46.8319 45.7901 46.8867C45.6561 46.9416 45.5124 46.9692 45.3676 46.9679C45.2227 46.9666 45.0796 46.9366 44.9465 46.8794C44.8134 46.8222 44.693 46.7391 44.5924 46.6349L41 43.0425L37.4076 46.6349C37.307 46.7391 37.1866 46.8222 37.0535 46.8794C36.9204 46.9366 36.7773 46.9666 36.6324 46.9679C36.4876 46.9692 36.3439 46.9416 36.2099 46.8867C36.0758 46.8319 35.954 46.7509 35.8516 46.6484C35.7491 46.546 35.6681 46.4242 35.6133 46.2901C35.5584 46.1561 35.5308 46.0124 35.5321 45.8676C35.5334 45.7227 35.5634 45.5796 35.6206 45.4465C35.6778 45.3134 35.7609 45.193 35.8651 45.0924L39.4575 41.5L35.8651 37.9076C35.7609 37.807 35.6778 37.6866 35.6206 37.5535C35.5634 37.4204 35.5334 37.2773 35.5321 37.1324C35.5308 36.9876 35.5584 36.8439 35.6133 36.7099C35.6681 36.5758 35.7491 36.454 35.8516 36.3516C35.954 36.2491 36.0758 36.1681 36.2099 36.1133C36.3439 36.0584 36.4876 36.0308 36.6324 36.0321C36.7773 36.0333 36.9204 36.0634 37.0535 36.1206C37.1866 36.1778 37.307 36.2609 37.4076 36.3651L41 39.9575L44.5924 36.3651C44.693 36.2609 44.8134 36.1778 44.9465 36.1206C45.0796 36.0634 45.2227 36.0333 45.3676 36.0321C45.5124 36.0308 45.6561 36.0584 45.7901 36.1133C45.9242 36.1681 46.046 36.2491 46.1484 36.3516C46.2509 36.454 46.3319 36.5758 46.3867 36.7099C46.4416 36.8439 46.4692 36.9876 46.4679 37.1324C46.4667 37.2773 46.4366 37.4204 46.3794 37.5535C46.3222 37.6866 46.2391 37.807 46.1349 37.9076L42.5425 41.5L46.1349 45.0924Z" fill="white"/>
</g>
</g>
</g>
<defs>
<filter id="filter0_d_3865_40" x="0" y="0.5" width="81.33" height="81.33" filterUnits="userSpaceOnUse" color-interpolation-filters="sRGB">
<feFlood flood-opacity="0" result="BackgroundImageFix"/>
<feColorMatrix in="SourceAlpha" type="matrix" values="0 0 0 0 0 0 0 0 0 0 0 0 0 0 0 0 0 0 127 0" result="hardAlpha"/>
<feOffset/>
<feGaussianBlur stdDeviation="5.5"/>
<feComposite in2="hardAlpha" operator="out"/>
<feColorMatrix type="matrix" values="0 0 0 0 0 0 0 0 0 0 0 0 0 0 0 0 0 0 0.25 0"/>
<feBlend mode="normal" in2="BackgroundImageFix" result="effect1_dropShadow_3865_40"/>
<feBlend mode="normal" in="SourceGraphic" in2="effect1_dropShadow_3865_40" result="shape"/>
</filter>
<linearGradient id="paint0_linear_3865_40" x1="40.665" y1="11.5" x2="40.665" y2="70.83" gradientUnits="userSpaceOnUse">
<stop stop-color="#818182"/>
<stop offset="1"/>
</linearGradient>
<clipPath id="clip0_3865_40">
<rect width="82" height="82" fill="white" transform="translate(0 0.5)"/>
</clipPath>
</defs>
</svg>
