<svg width="33" height="33" viewBox="0 0 33 33" fill="none" xmlns="http://www.w3.org/2000/svg">
<path d="M24.3477 29.4465L3.88607 8.61852C2.56621 7.27503 2.58371 5.11646 3.92516 3.79455C5.27729 2.46212 7.4567 2.48867 8.77597 3.85363L29.0672 24.8476C30.3966 26.2231 30.2792 28.4379 28.8117 29.665C27.4941 30.7668 25.5513 30.6716 24.3477 29.4465Z" fill="white" stroke="white"/>
<path d="M3.59398 24.3447L24.385 3.84547C25.7261 2.52319 27.8846 2.53678 29.209 3.87585C30.5438 5.22556 30.5212 7.40502 29.1587 8.72675L8.20134 29.0558C6.82825 30.3878 4.6133 30.2743 3.38351 28.809C2.27939 27.4935 2.37099 25.5505 3.59398 24.3447Z" fill="white" stroke="white"/>
</svg>
