<svg width="82" height="83" viewBox="0 0 82 83" fill="none" xmlns="http://www.w3.org/2000/svg">
<g clip-path="url(#clip0_3865_52)">
<mask id="mask0_3865_52" style="mask-type:luminance" maskUnits="userSpaceOnUse" x="0" y="0" width="82" height="83">
<path d="M82 0.5H0V82.5H82V0.5Z" fill="white"/>
</mask>
<g mask="url(#mask0_3865_52)">
<g filter="url(#filter0_d_3865_52)">
<path d="M40.665 70.83C57.0485 70.83 70.33 57.5485 70.33 41.165C70.33 24.7815 57.0485 11.5 40.665 11.5C24.2815 11.5 11 24.7815 11 41.165C11 57.5485 24.2815 70.83 40.665 70.83Z" fill="url(#paint0_linear_3865_52)"/>
<path d="M50.665 31.165L39.665 42.165" stroke="white" stroke-width="2" stroke-linecap="round" stroke-linejoin="round"/>
<path d="M50.665 31.165L43.665 51.165L39.665 42.165L30.665 38.165L50.665 31.165Z" fill="url(#paint1_linear_3865_52)" stroke="white" stroke-width="2" stroke-linecap="round" stroke-linejoin="round"/>
</g>
</g>
</g>
<defs>
<filter id="filter0_d_3865_52" x="0" y="0.5" width="81.33" height="81.33" filterUnits="userSpaceOnUse" color-interpolation-filters="sRGB">
<feFlood flood-opacity="0" result="BackgroundImageFix"/>
<feColorMatrix in="SourceAlpha" type="matrix" values="0 0 0 0 0 0 0 0 0 0 0 0 0 0 0 0 0 0 127 0" result="hardAlpha"/>
<feOffset/>
<feGaussianBlur stdDeviation="5.5"/>
<feComposite in2="hardAlpha" operator="out"/>
<feColorMatrix type="matrix" values="0 0 0 0 0 0 0 0 0 0 0 0 0 0 0 0 0 0 0.25 0"/>
<feBlend mode="normal" in2="BackgroundImageFix" result="effect1_dropShadow_3865_52"/>
<feBlend mode="normal" in="SourceGraphic" in2="effect1_dropShadow_3865_52" result="shape"/>
</filter>
<linearGradient id="paint0_linear_3865_52" x1="40.665" y1="11.5" x2="40.665" y2="70.83" gradientUnits="userSpaceOnUse">
<stop stop-color="#818182"/>
<stop offset="1"/>
</linearGradient>
<linearGradient id="paint1_linear_3865_52" x1="40.665" y1="31.165" x2="40.665" y2="51.165" gradientUnits="userSpaceOnUse">
<stop stop-color="#818182"/>
<stop offset="1"/>
</linearGradient>
<clipPath id="clip0_3865_52">
<rect width="82" height="82" fill="white" transform="translate(0 0.5)"/>
</clipPath>
</defs>
</svg>
